<?xml version="1.0" standalone="no"?>
<!DOCTYPE svg PUBLIC "-//W3C//DTD SVG 20010904//EN"
 "http://www.w3.org/TR/2001/REC-SVG-20010904/DTD/svg10.dtd">
<svg version="1.0" xmlns="http://www.w3.org/2000/svg"
 width="996.000000pt" height="996.000000pt" viewBox="0 0 996.000000 996.000000"
 preserveAspectRatio="xMidYMid meet">
<metadata>
Created by potrace 1.11, written by Peter Selinger 2001-2013
</metadata>
<g transform="translate(0.000000,996.000000) scale(0.100000,-0.100000)"
fill="#000000" stroke="none">
<path d="M4795 9945 c-127 -34 -139 -40 -665 -345 -107 -62 -283 -163 -390
-225 -107 -61 -356 -205 -552 -319 -734 -423 -1072 -618 -1388 -801 -969 -558
-906 -520 -1005 -619 -101 -102 -142 -165 -194 -299 l-36 -92 -3 -2225 c-2
-1632 0 -2241 8 -2285 41 -213 187 -419 380 -537 41 -25 226 -132 410 -238
184 -107 430 -248 545 -315 116 -67 318 -184 450 -260 132 -76 323 -186 425
-245 1941 -1121 1860 -1076 1954 -1107 75 -26 93 -28 246 -28 153 0 171 2 246
28 94 31 13 -14 1954 1107 102 59 293 169 425 245 132 76 335 193 450 260 116
67 361 208 545 315 184 106 369 213 410 238 193 118 339 324 380 537 8 44 10
652 8 2285 l-3 2225 -36 92 c-52 134 -93 197 -194 299 -83 84 -107 100 -320
223 -126 73 -259 150 -295 171 -36 21 -211 123 -390 226 -310 178 -587 338
-1387 800 -197 114 -446 258 -553 319 -107 62 -283 163 -390 225 -531 307
-540 312 -669 346 -71 18 -297 18 -366 -1z m-186 -2865 c212 -12 334 -31 466
-75 136 -45 208 -87 286 -164 102 -102 139 -198 139 -358 0 -218 -82 -438
-237 -633 -35 -44 -63 -82 -63 -85 0 -3 520 -5 1155 -5 918 0 1155 -3 1154
-12 0 -7 -35 -152 -78 -323 l-77 -310 -452 -3 -453 -2 -9 -23 c-5 -12 -46
-170 -90 -352 -45 -181 -144 -584 -221 -895 -77 -311 -183 -740 -235 -955 -53
-214 -100 -407 -105 -427 l-10 -38 -398 0 -398 0 57 228 c68 272 193 779 410
1657 88 358 168 682 179 722 10 39 16 74 13 77 -6 7 -357 8 -363 1 -3 -2 -2
-35 2 -72 22 -193 -61 -480 -198 -685 -59 -89 -195 -228 -285 -291 -169 -120
-382 -211 -613 -261 -186 -41 -293 -46 -1027 -46 -389 0 -708 4 -708 8 0 4 29
125 64 268 65 261 173 696 396 1599 66 270 175 709 241 978 l121 487 582 0
c319 0 660 -5 755 -10z"/>
<path d="M3915 6479 c-6 -17 -175 -706 -175 -715 0 -3 114 -4 253 -2 195 4
265 9 312 22 201 56 330 188 369 378 26 128 -4 213 -92 261 -92 50 -147 59
-414 64 -205 5 -248 3 -253 -8z"/>
<path d="M3567 5068 c-84 -326 -174 -704 -170 -710 6 -11 443 -10 543 2 235
27 400 116 489 265 41 67 81 199 81 264 0 148 -99 239 -292 271 -35 5 -189 10
-344 10 l-281 0 -26 -102z"/>
</g>
</svg>
